<?xml version="1.0" encoding="UTF-8" standalone="no"?>
<!DOCTYPE svg PUBLIC "-//W3C//DTD SVG 1.1//EN"
 "http://www.w3.org/Graphics/SVG/1.1/DTD/svg11.dtd">
<!-- Generated by graphviz version 2.47.0 (20210316.0004)
 -->
<!-- Title: dependencies Pages: 1 -->
<svg width="5589pt" height="284pt"
 viewBox="0.00 0.00 5589.00 284.00" xmlns="http://www.w3.org/2000/svg" xmlns:xlink="http://www.w3.org/1999/xlink">
<g id="graph0" class="graph" transform="scale(1 1) rotate(0) translate(4 280)">
<title>dependencies</title>
<polygon fill="white" stroke="transparent" points="-4,4 -4,-280 5585,-280 5585,4 -4,4"/>
<text text-anchor="start" x="2769.51" y="-42.4" font-family="Times-12" font-weight="bold" font-size="14.00">Legend</text>
<polygon fill="#ffffb3" stroke="transparent" points="2556.5,-10 2556.5,-30 2576.5,-30 2576.5,-10 2556.5,-10"/>
<text text-anchor="start" x="2580.13" y="-15.4" font-family="Times-12" font-size="14.00"> &#160;Declarations</text>
<polygon fill="#8dd3c7" stroke="transparent" points="2669.5,-10 2669.5,-30 2689.5,-30 2689.5,-10 2669.5,-10"/>
<text text-anchor="start" x="2693.23" y="-15.4" font-family="Times-12" font-size="14.00"> &#160;Module</text>
<polygon fill="#80b1d3" stroke="transparent" points="2755.5,-10 2755.5,-30 2775.5,-30 2775.5,-10 2755.5,-10"/>
<text text-anchor="start" x="2779.28" y="-15.4" font-family="Times-12" font-size="14.00"> &#160;Bootstrap</text>
<polygon fill="#fdb462" stroke="transparent" points="2852.5,-10 2852.5,-30 2872.5,-30 2872.5,-10 2852.5,-10"/>
<text text-anchor="start" x="2876.17" y="-15.4" font-family="Times-12" font-size="14.00"> &#160;Providers</text>
<polygon fill="#fb8072" stroke="transparent" points="2948.5,-10 2948.5,-30 2968.5,-30 2968.5,-10 2948.5,-10"/>
<text text-anchor="start" x="2972.23" y="-15.4" font-family="Times-12" font-size="14.00"> &#160;Exports</text>
<g id="clust1" class="cluster">
<title>cluster_AppModule</title>
<polygon fill="none" stroke="black" stroke-dasharray="1,5" points="8,-70 8,-268 5573,-268 5573,-70 8,-70"/>
</g>
<g id="clust38" class="cluster">
<title>cluster_AppModule_providers</title>
<polygon fill="none" stroke="black" points="5269,-78 5269,-130 5565,-130 5565,-78 5269,-78"/>
</g>
<g id="clust37" class="cluster">
<title>cluster_AppModule_bootstrap</title>
<polygon fill="none" stroke="black" points="2834,-208 2834,-260 2958,-260 2958,-208 2834,-208"/>
</g>
<g id="clust2" class="cluster">
<title>cluster_AppModule_declarations</title>
<polygon fill="none" stroke="black" points="168,-78 168,-130 5261,-130 5261,-78 168,-78"/>
</g>
<g id="clust35" class="cluster">
<title>cluster_AppModule_imports</title>
<polygon fill="none" stroke="black" points="16,-78 16,-130 160,-130 160,-78 16,-78"/>
</g>
<!-- AddStudentComponent -->
<g id="node1" class="node">
<title>AddStudentComponent</title>
<polygon fill="#ffffb3" stroke="black" points="5253.22,-122 5104.78,-122 5104.78,-86 5253.22,-86 5253.22,-122"/>
<text text-anchor="middle" x="5179" y="-99.8" font-family="Times,serif" font-size="14.00">AddStudentComponent</text>
</g>
<!-- AppModule -->
<g id="node33" class="node">
<title>AppModule</title>
<polygon fill="#8dd3c7" stroke="black" points="2937.66,-187 2934.66,-191 2913.66,-191 2910.66,-187 2854.34,-187 2854.34,-151 2937.66,-151 2937.66,-187"/>
<text text-anchor="middle" x="2896" y="-164.8" font-family="Times,serif" font-size="14.00">AppModule</text>
</g>
<!-- AddStudentComponent&#45;&gt;AppModule -->
<g id="edge1" class="edge">
<title>AddStudentComponent&#45;&gt;AppModule</title>
<path fill="none" stroke="black" d="M5179,-122.25C5179,-145.02 5179,-181 5179,-181 5179,-181 2948.07,-181 2948.07,-181"/>
<polygon fill="black" stroke="black" points="2948.07,-177.5 2938.07,-181 2948.07,-184.5 2948.07,-177.5"/>
</g>
<!-- AddTeacherComponent -->
<g id="node2" class="node">
<title>AddTeacherComponent</title>
<polygon fill="#ffffb3" stroke="black" points="5087.01,-122 4936.99,-122 4936.99,-86 5087.01,-86 5087.01,-122"/>
<text text-anchor="middle" x="5012" y="-99.8" font-family="Times,serif" font-size="14.00">AddTeacherComponent</text>
</g>
<!-- AddTeacherComponent&#45;&gt;AppModule -->
<g id="edge2" class="edge">
<title>AddTeacherComponent&#45;&gt;AppModule</title>
<path fill="none" stroke="black" d="M5012,-122.16C5012,-144.35 5012,-179 5012,-179 5012,-179 2947.79,-179 2947.79,-179"/>
<polygon fill="black" stroke="black" points="2947.79,-175.5 2937.79,-179 2947.79,-182.5 2947.79,-175.5"/>
</g>
<!-- AdminComponent -->
<g id="node3" class="node">
<title>AdminComponent</title>
<polygon fill="#ffffb3" stroke="black" points="4919.22,-122 4798.78,-122 4798.78,-86 4919.22,-86 4919.22,-122"/>
<text text-anchor="middle" x="4859" y="-99.8" font-family="Times,serif" font-size="14.00">AdminComponent</text>
</g>
<!-- AdminComponent&#45;&gt;AppModule -->
<g id="edge3" class="edge">
<title>AdminComponent&#45;&gt;AppModule</title>
<path fill="none" stroke="black" d="M4859,-122.04C4859,-143.66 4859,-177 4859,-177 4859,-177 2947.91,-177 2947.91,-177"/>
<polygon fill="black" stroke="black" points="2947.91,-173.5 2937.91,-177 2947.91,-180.5 2947.91,-173.5"/>
</g>
<!-- AppComponent -->
<g id="node4" class="node">
<title>AppComponent</title>
<polygon fill="#ffffb3" stroke="black" points="4780.94,-122 4675.06,-122 4675.06,-86 4780.94,-86 4780.94,-122"/>
<text text-anchor="middle" x="4728" y="-99.8" font-family="Times,serif" font-size="14.00">AppComponent</text>
</g>
<!-- AppComponent&#45;&gt;AppModule -->
<g id="edge4" class="edge">
<title>AppComponent&#45;&gt;AppModule</title>
<path fill="none" stroke="black" d="M4728,-122.28C4728,-143.32 4728,-175 4728,-175 4728,-175 2947.71,-175 2947.71,-175"/>
<polygon fill="black" stroke="black" points="2947.71,-171.5 2937.71,-175 2947.71,-178.5 2947.71,-171.5"/>
</g>
<!-- ApplyLeaveComponent -->
<g id="node5" class="node">
<title>ApplyLeaveComponent</title>
<polygon fill="#ffffb3" stroke="black" points="4657.03,-122 4506.97,-122 4506.97,-86 4657.03,-86 4657.03,-122"/>
<text text-anchor="middle" x="4582" y="-99.8" font-family="Times,serif" font-size="14.00">ApplyLeaveComponent</text>
</g>
<!-- ApplyLeaveComponent&#45;&gt;AppModule -->
<g id="edge5" class="edge">
<title>ApplyLeaveComponent&#45;&gt;AppModule</title>
<path fill="none" stroke="black" d="M4582,-122.13C4582,-142.57 4582,-173 4582,-173 4582,-173 2947.68,-173 2947.68,-173"/>
<polygon fill="black" stroke="black" points="2947.68,-169.5 2937.68,-173 2947.68,-176.5 2947.68,-169.5"/>
</g>
<!-- ClassScheduleComponent -->
<g id="node6" class="node">
<title>ClassScheduleComponent</title>
<polygon fill="#ffffb3" stroke="black" points="4488.48,-122 4325.52,-122 4325.52,-86 4488.48,-86 4488.48,-122"/>
<text text-anchor="middle" x="4407" y="-99.8" font-family="Times,serif" font-size="14.00">ClassScheduleComponent</text>
</g>
<!-- ClassScheduleComponent&#45;&gt;AppModule -->
<g id="edge6" class="edge">
<title>ClassScheduleComponent&#45;&gt;AppModule</title>
<path fill="none" stroke="black" d="M4407,-122.31C4407,-142.15 4407,-171 4407,-171 4407,-171 2947.99,-171 2947.99,-171"/>
<polygon fill="black" stroke="black" points="2947.99,-167.5 2937.99,-171 2947.99,-174.5 2947.99,-167.5"/>
</g>
<!-- FooterComponent -->
<g id="node7" class="node">
<title>FooterComponent</title>
<polygon fill="#ffffb3" stroke="black" points="4307.88,-122 4190.12,-122 4190.12,-86 4307.88,-86 4307.88,-122"/>
<text text-anchor="middle" x="4249" y="-99.8" font-family="Times,serif" font-size="14.00">FooterComponent</text>
</g>
<!-- FooterComponent&#45;&gt;AppModule -->
<g id="edge7" class="edge">
<title>FooterComponent&#45;&gt;AppModule</title>
<path fill="none" stroke="black" d="M4249,-122.11C4249,-141.34 4249,-169 4249,-169 4249,-169 2947.98,-169 2947.98,-169"/>
<polygon fill="black" stroke="black" points="2947.98,-165.5 2937.98,-169 2947.98,-172.5 2947.98,-165.5"/>
</g>
<!-- ForbiddenComponent -->
<g id="node8" class="node">
<title>ForbiddenComponent</title>
<polygon fill="#ffffb3" stroke="black" points="4172.38,-122 4033.62,-122 4033.62,-86 4172.38,-86 4172.38,-122"/>
<text text-anchor="middle" x="4103" y="-99.8" font-family="Times,serif" font-size="14.00">ForbiddenComponent</text>
</g>
<!-- ForbiddenComponent&#45;&gt;AppModule -->
<g id="edge8" class="edge">
<title>ForbiddenComponent&#45;&gt;AppModule</title>
<path fill="none" stroke="black" d="M4103,-122.22C4103,-140.83 4103,-167 4103,-167 4103,-167 2947.9,-167 2947.9,-167"/>
<polygon fill="black" stroke="black" points="2947.9,-163.5 2937.9,-167 2947.9,-170.5 2947.9,-163.5"/>
</g>
<!-- HeaderComponent -->
<g id="node9" class="node">
<title>HeaderComponent</title>
<polygon fill="#ffffb3" stroke="black" points="4015.74,-122 3894.26,-122 3894.26,-86 4015.74,-86 4015.74,-122"/>
<text text-anchor="middle" x="3955" y="-99.8" font-family="Times,serif" font-size="14.00">HeaderComponent</text>
</g>
<!-- HeaderComponent&#45;&gt;AppModule -->
<g id="edge9" class="edge">
<title>HeaderComponent&#45;&gt;AppModule</title>
<path fill="none" stroke="black" d="M3955,-122.3C3955,-140.27 3955,-165 3955,-165 3955,-165 2947.84,-165 2947.84,-165"/>
<polygon fill="black" stroke="black" points="2947.84,-161.5 2937.84,-165 2947.84,-168.5 2947.84,-161.5"/>
</g>
<!-- HomeComponent -->
<g id="node10" class="node">
<title>HomeComponent</title>
<polygon fill="#ffffb3" stroke="black" points="3875.55,-122 3760.45,-122 3760.45,-86 3875.55,-86 3875.55,-122"/>
<text text-anchor="middle" x="3818" y="-99.8" font-family="Times,serif" font-size="14.00">HomeComponent</text>
</g>
<!-- HomeComponent&#45;&gt;AppModule -->
<g id="edge10" class="edge">
<title>HomeComponent&#45;&gt;AppModule</title>
<path fill="none" stroke="black" d="M3818,-122.02C3818,-139.37 3818,-163 3818,-163 3818,-163 2947.71,-163 2947.71,-163"/>
<polygon fill="black" stroke="black" points="2947.71,-159.5 2937.71,-163 2947.71,-166.5 2947.71,-159.5"/>
</g>
<!-- ListFeesComponent -->
<g id="node11" class="node">
<title>ListFeesComponent</title>
<polygon fill="#ffffb3" stroke="black" points="3742.27,-122 3613.73,-122 3613.73,-86 3742.27,-86 3742.27,-122"/>
<text text-anchor="middle" x="3678" y="-99.8" font-family="Times,serif" font-size="14.00">ListFeesComponent</text>
</g>
<!-- ListFeesComponent&#45;&gt;AppModule -->
<g id="edge11" class="edge">
<title>ListFeesComponent&#45;&gt;AppModule</title>
<path fill="none" stroke="black" d="M3678,-122.04C3678,-138.73 3678,-161 3678,-161 3678,-161 2947.77,-161 2947.77,-161"/>
<polygon fill="black" stroke="black" points="2947.77,-157.5 2937.77,-161 2947.77,-164.5 2947.77,-157.5"/>
</g>
<!-- ListLeavesComponent -->
<g id="node12" class="node">
<title>ListLeavesComponent</title>
<polygon fill="#ffffb3" stroke="black" points="3595.25,-122 3452.75,-122 3452.75,-86 3595.25,-86 3595.25,-122"/>
<text text-anchor="middle" x="3524" y="-99.8" font-family="Times,serif" font-size="14.00">ListLeavesComponent</text>
</g>
<!-- ListLeavesComponent&#45;&gt;AppModule -->
<g id="edge12" class="edge">
<title>ListLeavesComponent&#45;&gt;AppModule</title>
<path fill="none" stroke="black" d="M3524,-122.01C3524,-138.05 3524,-159 3524,-159 3524,-159 2947.69,-159 2947.69,-159"/>
<polygon fill="black" stroke="black" points="2947.69,-155.5 2937.69,-159 2947.69,-162.5 2947.69,-155.5"/>
</g>
<!-- ListMsgsComponent -->
<g id="node13" class="node">
<title>ListMsgsComponent</title>
<polygon fill="#ffffb3" stroke="black" points="3434.95,-122 3301.05,-122 3301.05,-86 3434.95,-86 3434.95,-122"/>
<text text-anchor="middle" x="3368" y="-99.8" font-family="Times,serif" font-size="14.00">ListMsgsComponent</text>
</g>
<!-- ListMsgsComponent&#45;&gt;AppModule -->
<g id="edge13" class="edge">
<title>ListMsgsComponent&#45;&gt;AppModule</title>
<path fill="none" stroke="black" d="M3368,-122.24C3368,-137.57 3368,-157 3368,-157 3368,-157 2947.89,-157 2947.89,-157"/>
<polygon fill="black" stroke="black" points="2947.89,-153.5 2937.89,-157 2947.89,-160.5 2947.89,-153.5"/>
</g>
<!-- ListStudentComponent -->
<g id="node14" class="node">
<title>ListStudentComponent</title>
<polygon fill="#ffffb3" stroke="black" points="3282.89,-122 3137.11,-122 3137.11,-86 3282.89,-86 3282.89,-122"/>
<text text-anchor="middle" x="3210" y="-99.8" font-family="Times,serif" font-size="14.00">ListStudentComponent</text>
</g>
<!-- ListStudentComponent&#45;&gt;AppModule -->
<g id="edge14" class="edge">
<title>ListStudentComponent&#45;&gt;AppModule</title>
<path fill="none" stroke="black" d="M3210,-122.12C3210,-136.78 3210,-155 3210,-155 3210,-155 2947.7,-155 2947.7,-155"/>
<polygon fill="black" stroke="black" points="2947.7,-151.5 2937.7,-155 2947.7,-158.5 2947.7,-151.5"/>
</g>
<!-- ListTeacherComponent -->
<g id="node15" class="node">
<title>ListTeacherComponent</title>
<polygon fill="#ffffb3" stroke="black" points="3119.18,-122 2970.82,-122 2970.82,-86 3119.18,-86 3119.18,-122"/>
<text text-anchor="middle" x="3045" y="-99.8" font-family="Times,serif" font-size="14.00">ListTeacherComponent</text>
</g>
<!-- ListTeacherComponent&#45;&gt;AppModule -->
<g id="edge15" class="edge">
<title>ListTeacherComponent&#45;&gt;AppModule</title>
<path fill="none" stroke="black" d="M3045,-122.25C3045,-136.18 3045,-153 3045,-153 3045,-153 2947.9,-153 2947.9,-153"/>
<polygon fill="black" stroke="black" points="2947.9,-149.5 2937.9,-153 2947.9,-156.5 2947.9,-149.5"/>
</g>
<!-- LoginComponent -->
<g id="node16" class="node">
<title>LoginComponent</title>
<polygon fill="#ffffb3" stroke="black" points="2953.28,-122 2838.72,-122 2838.72,-86 2953.28,-86 2953.28,-122"/>
<text text-anchor="middle" x="2896" y="-99.8" font-family="Times,serif" font-size="14.00">LoginComponent</text>
</g>
<!-- LoginComponent&#45;&gt;AppModule -->
<g id="edge16" class="edge">
<title>LoginComponent&#45;&gt;AppModule</title>
<path fill="none" stroke="black" d="M2896,-122.11C2896,-122.11 2896,-140.99 2896,-140.99"/>
<polygon fill="black" stroke="black" points="2892.5,-140.99 2896,-150.99 2899.5,-140.99 2892.5,-140.99"/>
</g>
<!-- MessageTeacherComponent -->
<g id="node17" class="node">
<title>MessageTeacherComponent</title>
<polygon fill="#ffffb3" stroke="black" points="2820.88,-122 2645.12,-122 2645.12,-86 2820.88,-86 2820.88,-122"/>
<text text-anchor="middle" x="2733" y="-99.8" font-family="Times,serif" font-size="14.00">MessageTeacherComponent</text>
</g>
<!-- MessageTeacherComponent&#45;&gt;AppModule -->
<g id="edge17" class="edge">
<title>MessageTeacherComponent&#45;&gt;AppModule</title>
<path fill="none" stroke="black" d="M2733,-122.25C2733,-136.18 2733,-153 2733,-153 2733,-153 2844.02,-153 2844.02,-153"/>
<polygon fill="black" stroke="black" points="2844.02,-156.5 2854.02,-153 2844.02,-149.5 2844.02,-156.5"/>
</g>
<!-- MyFeesComponent -->
<g id="node18" class="node">
<title>MyFeesComponent</title>
<polygon fill="#ffffb3" stroke="black" points="2627.43,-122 2500.57,-122 2500.57,-86 2627.43,-86 2627.43,-122"/>
<text text-anchor="middle" x="2564" y="-99.8" font-family="Times,serif" font-size="14.00">MyFeesComponent</text>
</g>
<!-- MyFeesComponent&#45;&gt;AppModule -->
<g id="edge18" class="edge">
<title>MyFeesComponent&#45;&gt;AppModule</title>
<path fill="none" stroke="black" d="M2564,-122.12C2564,-136.78 2564,-155 2564,-155 2564,-155 2844.29,-155 2844.29,-155"/>
<polygon fill="black" stroke="black" points="2844.29,-158.5 2854.29,-155 2844.29,-151.5 2844.29,-158.5"/>
</g>
<!-- MyLeavesComponent -->
<g id="node19" class="node">
<title>MyLeavesComponent</title>
<polygon fill="#ffffb3" stroke="black" points="2483.42,-122 2342.58,-122 2342.58,-86 2483.42,-86 2483.42,-122"/>
<text text-anchor="middle" x="2413" y="-99.8" font-family="Times,serif" font-size="14.00">MyLeavesComponent</text>
</g>
<!-- MyLeavesComponent&#45;&gt;AppModule -->
<g id="edge19" class="edge">
<title>MyLeavesComponent&#45;&gt;AppModule</title>
<path fill="none" stroke="black" d="M2413,-122.24C2413,-137.57 2413,-157 2413,-157 2413,-157 2843.98,-157 2843.98,-157"/>
<polygon fill="black" stroke="black" points="2843.98,-160.5 2853.98,-157 2843.98,-153.5 2843.98,-160.5"/>
</g>
<!-- MyMsgsComponent -->
<g id="node20" class="node">
<title>MyMsgsComponent</title>
<polygon fill="#ffffb3" stroke="black" points="2324.61,-122 2193.39,-122 2193.39,-86 2324.61,-86 2324.61,-122"/>
<text text-anchor="middle" x="2259" y="-99.8" font-family="Times,serif" font-size="14.00">MyMsgsComponent</text>
</g>
<!-- MyMsgsComponent&#45;&gt;AppModule -->
<g id="edge20" class="edge">
<title>MyMsgsComponent&#45;&gt;AppModule</title>
<path fill="none" stroke="black" d="M2259,-122.01C2259,-138.05 2259,-159 2259,-159 2259,-159 2844.2,-159 2844.2,-159"/>
<polygon fill="black" stroke="black" points="2844.2,-162.5 2854.2,-159 2844.2,-155.5 2844.2,-162.5"/>
</g>
<!-- NewsComponent -->
<g id="node21" class="node">
<title>NewsComponent</title>
<polygon fill="#ffffb3" stroke="black" points="2175.7,-122 2062.3,-122 2062.3,-86 2175.7,-86 2175.7,-122"/>
<text text-anchor="middle" x="2119" y="-99.8" font-family="Times,serif" font-size="14.00">NewsComponent</text>
</g>
<!-- NewsComponent&#45;&gt;AppModule -->
<g id="edge21" class="edge">
<title>NewsComponent&#45;&gt;AppModule</title>
<path fill="none" stroke="black" d="M2119,-122.04C2119,-138.73 2119,-161 2119,-161 2119,-161 2844.23,-161 2844.23,-161"/>
<polygon fill="black" stroke="black" points="2844.23,-164.5 2854.23,-161 2844.23,-157.5 2844.23,-164.5"/>
</g>
<!-- PayFeesComponent -->
<g id="node22" class="node">
<title>PayFeesComponent</title>
<polygon fill="#ffffb3" stroke="black" points="2043.99,-122 1916.01,-122 1916.01,-86 2043.99,-86 2043.99,-122"/>
<text text-anchor="middle" x="1980" y="-99.8" font-family="Times,serif" font-size="14.00">PayFeesComponent</text>
</g>
<!-- PayFeesComponent&#45;&gt;AppModule -->
<g id="edge22" class="edge">
<title>PayFeesComponent&#45;&gt;AppModule</title>
<path fill="none" stroke="black" d="M1980,-122.02C1980,-139.37 1980,-163 1980,-163 1980,-163 2844.26,-163 2844.26,-163"/>
<polygon fill="black" stroke="black" points="2844.26,-166.5 2854.26,-163 2844.26,-159.5 2844.26,-166.5"/>
</g>
<!-- ReceivedMsgsComponent -->
<g id="node23" class="node">
<title>ReceivedMsgsComponent</title>
<polygon fill="#ffffb3" stroke="black" points="1897.75,-122 1734.25,-122 1734.25,-86 1897.75,-86 1897.75,-122"/>
<text text-anchor="middle" x="1816" y="-99.8" font-family="Times,serif" font-size="14.00">ReceivedMsgsComponent</text>
</g>
<!-- ReceivedMsgsComponent&#45;&gt;AppModule -->
<g id="edge23" class="edge">
<title>ReceivedMsgsComponent&#45;&gt;AppModule</title>
<path fill="none" stroke="black" d="M1816,-122.3C1816,-140.27 1816,-165 1816,-165 1816,-165 2844.32,-165 2844.32,-165"/>
<polygon fill="black" stroke="black" points="2844.32,-168.5 2854.32,-165 2844.32,-161.5 2844.32,-168.5"/>
</g>
<!-- RegisterComponent -->
<g id="node24" class="node">
<title>RegisterComponent</title>
<polygon fill="#ffffb3" stroke="black" points="1715.98,-122 1588.02,-122 1588.02,-86 1715.98,-86 1715.98,-122"/>
<text text-anchor="middle" x="1652" y="-99.8" font-family="Times,serif" font-size="14.00">RegisterComponent</text>
</g>
<!-- RegisterComponent&#45;&gt;AppModule -->
<g id="edge24" class="edge">
<title>RegisterComponent&#45;&gt;AppModule</title>
<path fill="none" stroke="black" d="M1652,-122.22C1652,-140.83 1652,-167 1652,-167 1652,-167 2844.25,-167 2844.25,-167"/>
<polygon fill="black" stroke="black" points="2844.25,-170.5 2854.25,-167 2844.25,-163.5 2844.25,-170.5"/>
</g>
<!-- StudentDashboardComponent -->
<g id="node25" class="node">
<title>StudentDashboardComponent</title>
<polygon fill="#ffffb3" stroke="black" points="1570.25,-122 1385.75,-122 1385.75,-86 1570.25,-86 1570.25,-122"/>
<text text-anchor="middle" x="1478" y="-99.8" font-family="Times,serif" font-size="14.00">StudentDashboardComponent</text>
</g>
<!-- StudentDashboardComponent&#45;&gt;AppModule -->
<g id="edge25" class="edge">
<title>StudentDashboardComponent&#45;&gt;AppModule</title>
<path fill="none" stroke="black" d="M1478,-122.11C1478,-141.34 1478,-169 1478,-169 1478,-169 2844.33,-169 2844.33,-169"/>
<polygon fill="black" stroke="black" points="2844.33,-172.5 2854.33,-169 2844.33,-165.5 2844.33,-172.5"/>
</g>
<!-- TeacherDashboardComponent -->
<g id="node26" class="node">
<title>TeacherDashboardComponent</title>
<polygon fill="#ffffb3" stroke="black" points="1367.55,-122 1180.45,-122 1180.45,-86 1367.55,-86 1367.55,-122"/>
<text text-anchor="middle" x="1274" y="-99.8" font-family="Times,serif" font-size="14.00">TeacherDashboardComponent</text>
</g>
<!-- TeacherDashboardComponent&#45;&gt;AppModule -->
<g id="edge26" class="edge">
<title>TeacherDashboardComponent&#45;&gt;AppModule</title>
<path fill="none" stroke="black" d="M1274,-122.31C1274,-142.15 1274,-171 1274,-171 1274,-171 2844.28,-171 2844.28,-171"/>
<polygon fill="black" stroke="black" points="2844.28,-174.5 2854.28,-171 2844.28,-167.5 2844.28,-174.5"/>
</g>
<!-- UpdateStudentComponent -->
<g id="node27" class="node">
<title>UpdateStudentComponent</title>
<polygon fill="#ffffb3" stroke="black" points="1162.04,-122 997.96,-122 997.96,-86 1162.04,-86 1162.04,-122"/>
<text text-anchor="middle" x="1080" y="-99.8" font-family="Times,serif" font-size="14.00">UpdateStudentComponent</text>
</g>
<!-- UpdateStudentComponent&#45;&gt;AppModule -->
<g id="edge27" class="edge">
<title>UpdateStudentComponent&#45;&gt;AppModule</title>
<path fill="none" stroke="black" d="M1080,-122.13C1080,-142.57 1080,-173 1080,-173 1080,-173 2844.22,-173 2844.22,-173"/>
<polygon fill="black" stroke="black" points="2844.22,-176.5 2854.22,-173 2844.22,-169.5 2844.22,-176.5"/>
</g>
<!-- UpdateTeacherComponent -->
<g id="node28" class="node">
<title>UpdateTeacherComponent</title>
<polygon fill="#ffffb3" stroke="black" points="979.33,-122 812.67,-122 812.67,-86 979.33,-86 979.33,-122"/>
<text text-anchor="middle" x="896" y="-99.8" font-family="Times,serif" font-size="14.00">UpdateTeacherComponent</text>
</g>
<!-- UpdateTeacherComponent&#45;&gt;AppModule -->
<g id="edge28" class="edge">
<title>UpdateTeacherComponent&#45;&gt;AppModule</title>
<path fill="none" stroke="black" d="M896,-122.28C896,-143.32 896,-175 896,-175 896,-175 2844.23,-175 2844.23,-175"/>
<polygon fill="black" stroke="black" points="2844.23,-178.5 2854.23,-175 2844.23,-171.5 2844.23,-178.5"/>
</g>
<!-- UserComponent -->
<g id="node29" class="node">
<title>UserComponent</title>
<polygon fill="#ffffb3" stroke="black" points="794.76,-122 687.24,-122 687.24,-86 794.76,-86 794.76,-122"/>
<text text-anchor="middle" x="741" y="-99.8" font-family="Times,serif" font-size="14.00">UserComponent</text>
</g>
<!-- UserComponent&#45;&gt;AppModule -->
<g id="edge29" class="edge">
<title>UserComponent&#45;&gt;AppModule</title>
<path fill="none" stroke="black" d="M741,-122.04C741,-143.66 741,-177 741,-177 741,-177 2843.92,-177 2843.92,-177"/>
<polygon fill="black" stroke="black" points="2843.92,-180.5 2853.92,-177 2843.92,-173.5 2843.92,-180.5"/>
</g>
<!-- UserProfileComponent -->
<g id="node30" class="node">
<title>UserProfileComponent</title>
<polygon fill="#ffffb3" stroke="black" points="668.86,-122 523.14,-122 523.14,-86 668.86,-86 668.86,-122"/>
<text text-anchor="middle" x="596" y="-99.8" font-family="Times,serif" font-size="14.00">UserProfileComponent</text>
</g>
<!-- UserProfileComponent&#45;&gt;AppModule -->
<g id="edge30" class="edge">
<title>UserProfileComponent&#45;&gt;AppModule</title>
<path fill="none" stroke="black" d="M596,-122.16C596,-144.35 596,-179 596,-179 596,-179 2844.12,-179 2844.12,-179"/>
<polygon fill="black" stroke="black" points="2844.12,-182.5 2854.12,-179 2844.12,-175.5 2844.12,-182.5"/>
</g>
<!-- ViewStudentComponent -->
<g id="node31" class="node">
<title>ViewStudentComponent</title>
<polygon fill="#ffffb3" stroke="black" points="505.43,-122 350.57,-122 350.57,-86 505.43,-86 505.43,-122"/>
<text text-anchor="middle" x="428" y="-99.8" font-family="Times,serif" font-size="14.00">ViewStudentComponent</text>
</g>
<!-- ViewStudentComponent&#45;&gt;AppModule -->
<g id="edge31" class="edge">
<title>ViewStudentComponent&#45;&gt;AppModule</title>
<path fill="none" stroke="black" d="M428,-122.25C428,-145.02 428,-181 428,-181 428,-181 2844.2,-181 2844.2,-181"/>
<polygon fill="black" stroke="black" points="2844.2,-184.5 2854.2,-181 2844.2,-177.5 2844.2,-184.5"/>
</g>
<!-- ViewTeacherComponent -->
<g id="node32" class="node">
<title>ViewTeacherComponent</title>
<polygon fill="#ffffb3" stroke="black" points="332.22,-122 175.78,-122 175.78,-86 332.22,-86 332.22,-122"/>
<text text-anchor="middle" x="254" y="-99.8" font-family="Times,serif" font-size="14.00">ViewTeacherComponent</text>
</g>
<!-- ViewTeacherComponent&#45;&gt;AppModule -->
<g id="edge32" class="edge">
<title>ViewTeacherComponent&#45;&gt;AppModule</title>
<path fill="none" stroke="black" d="M254,-122.32C254,-145.66 254,-183 254,-183 254,-183 2844.23,-183 2844.23,-183"/>
<polygon fill="black" stroke="black" points="2844.23,-186.5 2854.23,-183 2844.23,-179.5 2844.23,-186.5"/>
</g>
<!-- AppComponent  -->
<g id="node35" class="node">
<title>AppComponent </title>
<polygon fill="#80b1d3" stroke="black" points="2950.44,-252 2841.56,-252 2841.56,-216 2950.44,-216 2950.44,-252"/>
<text text-anchor="middle" x="2896" y="-229.8" font-family="Times,serif" font-size="14.00">AppComponent </text>
</g>
<!-- AppModule&#45;&gt;AppComponent  -->
<g id="edge34" class="edge">
<title>AppModule&#45;&gt;AppComponent </title>
<path fill="none" stroke="black" stroke-dasharray="1,5" d="M2896,-187.11C2896,-187.11 2896,-205.99 2896,-205.99"/>
<polygon fill="black" stroke="black" points="2892.5,-205.99 2896,-215.99 2899.5,-205.99 2892.5,-205.99"/>
</g>
<!-- AppRoutingModule -->
<g id="node34" class="node">
<title>AppRoutingModule</title>
<polygon fill="#8dd3c7" stroke="black" points="152.27,-122 149.27,-126 128.27,-126 125.27,-122 23.73,-122 23.73,-86 152.27,-86 152.27,-122"/>
<text text-anchor="middle" x="88" y="-99.8" font-family="Times,serif" font-size="14.00">AppRoutingModule</text>
</g>
<!-- AppRoutingModule&#45;&gt;AppModule -->
<g id="edge33" class="edge">
<title>AppRoutingModule&#45;&gt;AppModule</title>
<path fill="none" stroke="black" d="M88,-122.38C88,-146.28 88,-185 88,-185 88,-185 2844.13,-185 2844.13,-185"/>
<polygon fill="black" stroke="black" points="2844.13,-188.5 2854.13,-185 2844.13,-181.5 2844.13,-188.5"/>
</g>
<!-- AuthInterceptor -->
<g id="node36" class="node">
<title>AuthInterceptor</title>
<ellipse fill="#fdb462" stroke="black" cx="5484" cy="-104" rx="72.91" ry="18"/>
<text text-anchor="middle" x="5484" y="-99.8" font-family="Times,serif" font-size="14.00">AuthInterceptor</text>
</g>
<!-- AuthInterceptor&#45;&gt;AppModule -->
<g id="edge35" class="edge">
<title>AuthInterceptor&#45;&gt;AppModule</title>
<path fill="none" stroke="black" d="M5484,-122.38C5484,-146.28 5484,-185 5484,-185 5484,-185 2947.7,-185 2947.7,-185"/>
<polygon fill="black" stroke="black" points="2947.7,-181.5 2937.7,-185 2947.7,-188.5 2947.7,-181.5"/>
</g>
<!-- UserService -->
<g id="node37" class="node">
<title>UserService</title>
<ellipse fill="#fdb462" stroke="black" cx="5335" cy="-104" rx="58.44" ry="18"/>
<text text-anchor="middle" x="5335" y="-99.8" font-family="Times,serif" font-size="14.00">UserService</text>
</g>
<!-- UserService&#45;&gt;AppModule -->
<g id="edge36" class="edge">
<title>UserService&#45;&gt;AppModule</title>
<path fill="none" stroke="black" d="M5335,-122.32C5335,-145.66 5335,-183 5335,-183 5335,-183 2947.82,-183 2947.82,-183"/>
<polygon fill="black" stroke="black" points="2947.82,-179.5 2937.82,-183 2947.82,-186.5 2947.82,-179.5"/>
</g>
</g>
</svg>
